<?xml version="1.0" standalone="no"?><!DOCTYPE svg PUBLIC "-//W3C//DTD SVG 1.1//EN" "http://www.w3.org/Graphics/SVG/1.1/DTD/svg11.dtd"><svg t="1571218597697" class="icon" viewBox="0 0 1024 1024" version="1.1" xmlns="http://www.w3.org/2000/svg" p-id="2617" xmlns:xlink="http://www.w3.org/1999/xlink" width="200" height="200"><defs><style type="text/css"></style></defs><path d="M878.156434 603.428571a54.857143 54.857143 0 0 1-100.571428 30.281143L647.866149 438.857143H622.156434v75.446857l141.129143 234.861714A36.827429 36.827429 0 0 1 731.87072 804.608h-109.714286v155.428571c0 35.437714-28.562286 64-64 64h-91.428571c-34.852571 0-64-28.562286-64-64v-155.428571H293.013577a36.827429 36.827429 0 0 1-31.414857-55.442286L402.727863 514.304V438.857143h-25.709714L247.299291 633.709714a54.857143 54.857143 0 1 1-91.428571-60.562285l146.285714-219.428572C325.013577 320 360.451291 292.571429 402.727863 292.571429h219.428571c42.276571 0 77.714286 27.428571 100.571429 61.147428l146.285714 219.428572c5.705143 8.557714 9.142857 19.419429 9.142857 30.281142zM640.442149 146.285714c0 70.838857-57.161143 128-128 128S384.442149 217.124571 384.442149 146.285714 441.603291 18.285714 512.442149 18.285714s128 57.161143 128 128z" fill="" p-id="2618"></path></svg>