<?xml version="1.0" standalone="no"?><!DOCTYPE svg PUBLIC "-//W3C//DTD SVG 1.1//EN" "http://www.w3.org/Graphics/SVG/1.1/DTD/svg11.dtd"><svg t="1572006280189" class="icon" viewBox="0 0 1024 1024" version="1.1" xmlns="http://www.w3.org/2000/svg" p-id="8400" xmlns:xlink="http://www.w3.org/1999/xlink" width="200" height="200"><defs><style type="text/css"></style></defs><path d="M532.3 676.3H498c-83.7 0-151.6-73.5-151.6-164.3 0-90.7 67.9-164.3 151.6-164.3h38.6c28.3 0 51.2-22.9 51.2-51.2v-49.1c0-65.7-49.6-119.5-110.3-119.5H174.3C113.6 128 64 181.8 64 247.5v529.1C64 842.2 113.6 896 174.3 896h303.3c60.6 0 110.3-53.8 110.3-119.5v-44.7c-0.1-30.7-24.9-55.5-55.6-55.5z" p-id="8401" fill="#ffffff"></path><path d="M960 511.8c0-16-5.9-30.6-15.5-41.8-1.2-1.5-2.5-2.9-3.9-4.3L744.7 270.9c-20.1-19.9-52.5-19.9-72.5 0l-0.3 0.3c-19.8 19.9-19.6 52.1 0.3 71.8l70.8 70.4c12.7 12.6 3.7 34.2-14.1 34.2H512.2c-35.4 0-64.2 28.7-64.2 64.2v0.4c0 35.4 28.7 64.2 64.2 64.2h216.7c17.9 0 26.8 21.6 14.1 34.2 0 0-73.7 70.9-74.6 71.8-19.1 20.6-16.8 51.5 3.8 70.6 20.1 19.9 52.5 19.9 72.5 0l195.8-194.7 0.3-0.3c1.3-1.3 2.5-2.6 3.6-4 9.7-11.2 15.5-25.8 15.5-41.8v-0.4h0.1z" p-id="8402" fill="#ffffff"></path></svg>