<?xml version="1.0" standalone="no"?><!DOCTYPE svg PUBLIC "-//W3C//DTD SVG 1.1//EN" "http://www.w3.org/Graphics/SVG/1.1/DTD/svg11.dtd"><svg t="1571215407881" class="icon" viewBox="0 0 1024 1024" version="1.1" xmlns="http://www.w3.org/2000/svg" p-id="1194" xmlns:xlink="http://www.w3.org/1999/xlink" width="200" height="200"><defs><style type="text/css"></style></defs><path d="M760.76896 402.272l0 237.728q0 22.848-16 38.848t-38.848 16-38.848-16-16-38.848l0-201.152-36.576 0 0 521.152q0 26.272-18.848 45.152t-45.152 18.848-45.152-18.848-18.848-45.152l0-265.152-36.576 0 0 265.152q0 26.272-18.848 45.152t-45.152 18.848-45.152-18.848-18.848-45.152l0-521.152-36.576 0 0 201.152q0 22.848-16 38.848t-38.848 16-38.848-16-16-38.848l0-237.728q0-45.728 32-77.728t77.728-32l365.728 0q45.728 0 77.728 32t32 77.728zM596.19296 146.272q0 53.152-37.44 90.56t-90.56 37.44-90.56-37.44-37.44-90.56 37.44-90.56 90.56-37.44 90.56 37.44 37.44 90.56z" p-id="1195"></path></svg>