<?xml version="1.0" standalone="no"?><!DOCTYPE svg PUBLIC "-//W3C//DTD SVG 1.1//EN" "http://www.w3.org/Graphics/SVG/1.1/DTD/svg11.dtd"><svg t="1572006125750" class="icon" viewBox="0 0 1024 1024" version="1.1" xmlns="http://www.w3.org/2000/svg" p-id="5813" xmlns:xlink="http://www.w3.org/1999/xlink" width="200" height="200"><defs><style type="text/css"></style></defs><path d="M797.024 659.296c-16 0-30.88 3.168-44.64 9.024-1.12-1.024-1.568-2.144-2.688-3.168l-283.808-282.24a73.728 73.728 0 0 0-71.808-18.592l-0.576-0.576c-0.576 0.576-1.568 0.576-2.144 1.024a70.4 70.4 0 0 0-26.112 14.4l0.096-0.064c-174.368 104.832-293.952 357.312-293.952 566.272 0 29.184-4.288 43.04 0 71.232h546.56V741.12l27.168 27.168c4.736 4.736 9.568 8.448 14.88 11.712a52.544 52.544 0 0 0 103.712 5.408h1.024v-10.72a31.36 31.36 0 0 1 62.656 0v241.888h83.968v-241.888c1.12-63.808-50.496-115.424-114.304-115.424z m156.32-516.224c-4.288-16.448-56.928-38.336-73.376-34.048l-10.144 2.688-49.92-56.352c-5.312-5.856-31.904-32.896-52.064-44.64-28.736-16.448-251.456 30.88-280.224 74.944-12.16 19.168-17.472 41.472-20.16 52.064l-17.6 86.688-10.144 2.592c-16.448 4.288-51.072 49.472-46.784 65.92a30.368 30.368 0 0 0 14.4 18.848l0.16 0.064a31.104 31.104 0 0 0 24 2.784l-0.224 0.064 66.944-17.568a183.68 183.68 0 0 0 180.8 149.344c101.568 0 183.936-81.824 183.936-182.944 0-21.312-3.712-41.92-10.592-61.088l78.688-21.312c16.992-4.608 27.04-21.632 22.304-38.08z m-139.296-94.56l5.856 6.88c2.144 2.688 1.024 1.12-5.856-6.88z" fill="#ffffff" p-id="5814"></path></svg>