<?xml version="1.0" standalone="no"?><!DOCTYPE svg PUBLIC "-//W3C//DTD SVG 1.1//EN" "http://www.w3.org/Graphics/SVG/1.1/DTD/svg11.dtd"><svg t="1572703249789" class="icon" viewBox="0 0 1024 1024" version="1.1" xmlns="http://www.w3.org/2000/svg" p-id="1757" xmlns:xlink="http://www.w3.org/1999/xlink" width="200" height="200"><defs><style type="text/css"></style></defs><path d="M512 64C264.96 64 64 264.96 64 512s200.96 448 448 448 448-200.96 448-448S759.04 64 512 64z m0 883.2C271.36 947.2 76.8 752.64 76.8 512S271.36 76.8 512 76.8s435.2 194.56 435.2 435.2-194.56 435.2-435.2 435.2z" fill="#ffffff" p-id="1758"></path><path d="M512 960C264.96 960 64 759.04 64 512S264.96 64 512 64s448 200.96 448 448-200.96 448-448 448z m0-62.72c212.48 0 385.28-172.8 385.28-385.28S724.48 126.72 512 126.72 126.72 299.52 126.72 512 299.52 897.28 512 897.28z" fill="#ffffff" p-id="1759"></path><path d="M480 426.24l23.04-48.64c2.56-5.12 7.68-6.4 11.52-3.84 1.28 1.28 3.84 2.56 3.84 3.84l23.04 48.64H729.6c12.8 0 23.04 10.24 23.04 23.04v271.36c0 12.8-10.24 23.04-23.04 23.04H294.4c-12.8 0-23.04-10.24-23.04-23.04V448c0-12.8 10.24-23.04 23.04-23.04 0 1.28 185.6 1.28 185.6 1.28z m-71.68 208.64c26.88 0 49.92-21.76 49.92-49.92 0-26.88-21.76-49.92-49.92-49.92S358.4 556.8 358.4 584.96c0 26.88 21.76 49.92 49.92 49.92z m174.08-99.84c-8.96 0-15.36 7.68-15.36 15.36v67.84c0 8.96 7.68 15.36 15.36 15.36 8.96 0 15.36-7.68 15.36-15.36V550.4c0-8.96-6.4-15.36-15.36-15.36z m62.72 0c-8.96 0-15.36 7.68-15.36 15.36v67.84c0 8.96 7.68 15.36 15.36 15.36 8.96 0 15.36-7.68 15.36-15.36V550.4c1.28-8.96-6.4-15.36-15.36-15.36zM418.56 350.72c-11.52 6.4-24.32 1.28-30.72-8.96-6.4-10.24-2.56-24.32 8.96-30.72 71.68-39.68 149.76-39.68 232.96-1.28 11.52 5.12 16.64 19.2 11.52 29.44-5.12 11.52-19.2 16.64-29.44 11.52-71.68-32-134.4-32-193.28 0z" fill="#ffffff" p-id="1760"></path></svg>