<?xml version="1.0" standalone="no"?><!DOCTYPE svg PUBLIC "-//W3C//DTD SVG 1.1//EN" "http://www.w3.org/Graphics/SVG/1.1/DTD/svg11.dtd"><svg t="1572005562643" class="icon" viewBox="0 0 1024 1024" version="1.1" xmlns="http://www.w3.org/2000/svg" p-id="2316" xmlns:xlink="http://www.w3.org/1999/xlink" width="200" height="200"><defs><style type="text/css"></style></defs><path d="M864 96c17.6 0 32-14.4 32-32V32c0-17.6-14.4-32-32-32H160C142.4 0 128 14.4 128 32v32c0 17.6 14.4 32 32 32h32v313.4C151.6 429.6 128 453.8 128 480c0 134.4 69.2 252.4 173.6 321l-42.8 140.4C246.2 982.4 277 1024 320 1024h384c43 0 73.8-41.6 61.2-82.6l-42.8-140.4C826.8 732.4 896 614.4 896 480c0-26.2-23.6-50.4-64-70.6V96h32zM288 144c0-8.8 7.2-16 16-16h96c8.8 0 16 7.2 16 16v32c0 8.8-7.2 16-16 16H304c-8.8 0-16-7.2-16-16V144z m224 400c-154.2 0-279.2-28.6-279.2-64s125-64 279.2-64 279.2 28.6 279.2 64-125 64-279.2 64z" p-id="2317" fill="#ffffff"></path></svg>